<svg xmlns="http://www.w3.org/2000/svg" xmlns:xlink="http://www.w3.org/1999/xlink" viewBox="0 0 74.375 85" fill="#fff" fill-rule="evenodd" stroke="#000" stroke-linecap="round" stroke-linejoin="round"><use xlink:href="#A" x="2.188" y="2.5"/><symbol id="A" overflow="visible"><g stroke="none"><path d="M35.005 49.942L0 54.059l9.831 14.029 36.386-16.829-11.211-1.317z" fill="#b7ca9d"/><path d="M35.005 30.058L70 25.941l-9.831-14.029-36.386 16.82 11.222 1.327z" fill="#3c4929"/><path d="M23.783 28.732l36.386-5.581V11.912l-36.386 9.317v7.502zM0 44.683L35.005 48l34.335-8-34.335-8L0 35.307v9.376z" fill="#4b612c"/><path d="M70 44.683L35.005 48V32L70 35.307v9.376z" fill="#759c3e"/><path d="M0 25.942L35.005 0l18.631 21.288-36.654 6.654-16.982-2z" fill="#3c4929"/><path d="M0 16.566L35.005 0v16L0 25.942v-9.376z" fill="#4b612c"/><path d="M60.169 11.912L70 16.566v9.376l-9.831-2.79v-11.24zM46.217 51.259l-36.386 5.59v11.239l36.386-9.327v-7.502zm7.419-29.971L35.005 16V0l18.631 8.82v12.468z" fill="#759c3e"/><path d="M70 54.059L35.005 80.001 16.374 58.703l36.644-6.644 16.982 2z" fill="#b7ca9d"/><path d="M70 63.425L35.005 80.001v-16L70 54.059v9.366z" fill="#759c3e"/><path d="M16.374 58.702L35.005 64v16l-18.631-8.82V58.702zm-6.543 9.386L0 63.425v-9.366l9.831 2.79v11.239z" fill="#4b612c"/></g></symbol></svg>